<?xml version="1.0" encoding="UTF-8" standalone="no"?>
<svg
   aria-hidden="true"
   focusable="false"
   data-prefix="fas"
   data-icon="sun"
   class="svg-inline--fa fa-sun fa-w-16"
   role="img"
   viewBox="0 0 512 512"
   version="1.1"
   id="svg4"
   sodipodi:docname="glacier-weather.svg"
   inkscape:version="1.1.1 (3bf5ae0d25, 2021-09-20)"
   inkscape:export-filename="/home/jmlich/Desktop/glacier-weather-128.png"
   inkscape:export-xdpi="24"
   inkscape:export-ydpi="24"
   xmlns:inkscape="http://www.inkscape.org/namespaces/inkscape"
   xmlns:sodipodi="http://sodipodi.sourceforge.net/DTD/sodipodi-0.dtd"
   xmlns="http://www.w3.org/2000/svg"
   xmlns:svg="http://www.w3.org/2000/svg">
  <defs
     id="defs8" />
  <sodipodi:namedview
     id="namedview6"
     pagecolor="#ffffff"
     bordercolor="#666666"
     borderopacity="1.0"
     inkscape:pageshadow="2"
     inkscape:pageopacity="0.0"
     inkscape:pagecheckerboard="0"
     showgrid="false"
     inkscape:zoom="1.1699219"
     inkscape:cx="229.92988"
     inkscape:cy="255.99999"
     inkscape:window-width="1920"
     inkscape:window-height="1004"
     inkscape:window-x="0"
     inkscape:window-y="25"
     inkscape:window-maximized="1"
     inkscape:current-layer="svg4" />
  <path
     d="m 256,160 c -52.9,0 -96,43.1 -96,96 0,52.9 43.1,96 96,96 52.9,0 96,-43.1 96,-96 0,-52.9 -43.1,-96 -96,-96 z"
     id="path2-6"
     style="fill:#fcaf3e;stroke:none;stroke-width:1;stroke-miterlimit:4;stroke-dasharray:none" />
  <path
     id="path1044"
     style="fill:#fce94f"
     d="M 256 0 C 249.85 0 243.7 3.1996094 240.5 9.5996094 L 193.19922 104.30078 L 92.699219 70.800781 C 79.099219 66.300781 66.200781 79.199219 70.800781 92.699219 L 104.30078 193.09961 L 9.5996094 240.5 C -3.2003906 246.9 -3.2003906 265.1 9.5996094 271.5 L 104.30078 318.80078 L 70.800781 419.30078 C 66.300781 432.90078 79.199219 445.79922 92.699219 441.19922 L 193.09961 407.69922 L 240.40039 502.40039 C 246.80039 515.20039 265.00039 515.20039 271.40039 502.40039 L 318.69922 407.69922 L 419.09961 441.19922 C 432.69961 445.69922 445.6 432.80078 441 419.30078 L 407.5 318.90039 L 502.19922 271.59961 C 515.19922 265.09961 515.20039 246.9 502.40039 240.5 L 407.69922 193.19922 L 441.19922 92.800781 C 445.69922 79.200781 432.80078 66.300391 419.30078 70.900391 L 318.90039 104.40039 L 271.5 9.5996094 C 268.3 3.1996094 262.15 0 256 0 z M 256 128.07422 C 288.775 128.07422 321.55 140.55 346.5 165.5 C 396.4 215.4 396.4 296.6 346.5 346.5 C 296.6 396.4 215.4 396.4 165.5 346.5 C 115.6 296.6 115.6 215.4 165.5 165.5 C 190.45 140.55 223.225 128.07422 256 128.07422 z " />
</svg>
